{
    "streams": [
        {
            "index": 0,
            "codec_name": "hevc",
            "codec_long_name": "H.265 / HEVC (High Efficiency Video Coding)",
            "profile": "Main 10",
            "codec_type": "video",
            "codec_tag_string": "[0][0][0][0]",
            "codec_tag": "0x0000",
            "width": 1920,
            "height": 1080,
            "coded_width": 1920,
            "coded_height": 1080,
            "closed_captions": 0,
            "film_grain": 0,
            "has_b_frames": 2,
            "sample_aspect_ratio": "1:1",
            "display_aspect_ratio": "16:9",
            "pix_fmt": "yuv420p10le",
            "level": 120,
            "color_range": "tv",
            "chroma_location": "left",
            "refs": 1,
            "r_frame_rate": "24000/1001",
            "avg_frame_rate": "24000/1001",
            "time_base": "1/1000",
            "start_pts": 0,
            "start_time": "0.000000",
            "extradata_size": 2438,
            "disposition": {
                "default": 1,
                "dub": 0,
                "original": 0,
                "comment": 0,
                "lyrics": 0,
                "karaoke": 0,
                "forced": 0,
                "hearing_impaired": 0,
                "visual_impaired": 0,
                "clean_effects": 0,
                "attached_pic": 0,
                "timed_thumbnails": 0,
                "captions": 0,
                "descriptions": 0,
                "metadata": 0,
                "dependent": 0,
                "still_image": 0
            },
            "tags": {
                "language": "jpn",
                "title": "[MapleTree]",
                "BPS": "3636842",
                "DURATION": "00:23:40.044000000",
                "NUMBER_OF_FRAMES": "34047",
                "NUMBER_OF_BYTES": "645559603",
                "_STATISTICS_WRITING_APP": "mkvmerge v75.0.0 ('Goliath') 64-bit",
                "_STATISTICS_WRITING_DATE_UTC": "2023-03-27 04:32:57",
                "_STATISTICS_TAGS": "BPS DURATION NUMBER_OF_FRAMES NUMBER_OF_BYTES"
            }
        },
        {
            "index": 1,
            "codec_name": "aac",
            "codec_long_name": "AAC (Advanced Audio Coding)",
            "profile": "LC",
            "codec_type": "audio",
            "codec_tag_string": "[0][0][0][0]",
            "codec_tag": "0x0000",
            "sample_fmt": "fltp",
            "sample_rate": "48000",
            "channels": 2,
            "channel_layout": "stereo",
            "bits_per_sample": 0,
            "r_frame_rate": "0/0",
            "avg_frame_rate": "0/0",
            "time_base": "1/1000",
            "start_pts": 7,
            "start_time": "0.007000",
            "extradata_size": 2,
            "disposition": {
                "default": 1,
                "dub": 0,
                "original": 0,
                "comment": 0,
                "lyrics": 0,
                "karaoke": 0,
                "forced": 0,
                "hearing_impaired": 0,
                "visual_impaired": 0,
                "clean_effects": 0,
                "attached_pic": 0,
                "timed_thumbnails": 0,
                "captions": 0,
                "descriptions": 0,
                "metadata": 0,
                "dependent": 0,
                "still_image": 0
            },
            "tags": {
                "language": "eng",
                "title": "2.0 AAC",
                "BPS": "255999",
                "DURATION": "00:23:40.011000000",
                "NUMBER_OF_FRAMES": "66563",
                "NUMBER_OF_BYTES": "45440342",
                "_STATISTICS_WRITING_APP": "mkvmerge v75.0.0 ('Goliath') 64-bit",
                "_STATISTICS_WRITING_DATE_UTC": "2023-03-27 04:32:57",
                "_STATISTICS_TAGS": "BPS DURATION NUMBER_OF_FRAMES NUMBER_OF_BYTES"
            }
        },
        {
            "index": 2,
            "codec_name": "aac",
            "codec_long_name": "AAC (Advanced Audio Coding)",
            "profile": "LC",
            "codec_type": "audio",
            "codec_tag_string": "[0][0][0][0]",
            "codec_tag": "0x0000",
            "sample_fmt": "fltp",
            "sample_rate": "48000",
            "channels": 2,
            "channel_layout": "stereo",
            "bits_per_sample": 0,
            "r_frame_rate": "0/0",
            "avg_frame_rate": "0/0",
            "time_base": "1/1000",
            "start_pts": 7,
            "start_time": "0.007000",
            "extradata_size": 2,
            "disposition": {
                "default": 0,
                "dub": 0,
                "original": 0,
                "comment": 0,
                "lyrics": 0,
                "karaoke": 0,
                "forced": 0,
                "hearing_impaired": 0,
                "visual_impaired": 0,
                "clean_effects": 0,
                "attached_pic": 0,
                "timed_thumbnails": 0,
                "captions": 0,
                "descriptions": 0,
                "metadata": 0,
                "dependent": 0,
                "still_image": 0
            },
            "tags": {
                "language": "jpn",
                "title": "2.0 AAC",
                "BPS": "255999",
                "DURATION": "00:23:40.011000000",
                "NUMBER_OF_FRAMES": "66563",
                "NUMBER_OF_BYTES": "45440342",
                "_STATISTICS_WRITING_APP": "mkvmerge v75.0.0 ('Goliath') 64-bit",
                "_STATISTICS_WRITING_DATE_UTC": "2023-03-27 04:32:57",
                "_STATISTICS_TAGS": "BPS DURATION NUMBER_OF_FRAMES NUMBER_OF_BYTES"
            }
        },
        {
            "index": 3,
            "codec_name": "ass",
            "codec_long_name": "ASS (Advanced SSA) subtitle",
            "codec_type": "subtitle",
            "codec_tag_string": "[0][0][0][0]",
            "codec_tag": "0x0000",
            "r_frame_rate": "0/0",
            "avg_frame_rate": "0/0",
            "time_base": "1/1000",
            "start_pts": 0,
            "start_time": "0.000000",
            "duration_ts": 1420044,
            "duration": "1420.044000",
            "extradata_size": 2032,
            "disposition": {
                "default": 1,
                "dub": 0,
                "original": 0,
                "comment": 0,
                "lyrics": 0,
                "karaoke": 0,
                "forced": 1,
                "hearing_impaired": 0,
                "visual_impaired": 0,
                "clean_effects": 0,
                "attached_pic": 0,
                "timed_thumbnails": 0,
                "captions": 0,
                "descriptions": 0,
                "metadata": 0,
                "dependent": 0,
                "still_image": 0
            },
            "tags": {
                "language": "eng",
                "title": "Signs & Songs",
                "BPS": "2279",
                "DURATION": "00:22:07.080000000",
                "NUMBER_OF_FRAMES": "3014",
                "NUMBER_OF_BYTES": "378125",
                "_STATISTICS_WRITING_APP": "mkvmerge v75.0.0 ('Goliath') 64-bit",
                "_STATISTICS_WRITING_DATE_UTC": "2023-03-27 04:32:57",
                "_STATISTICS_TAGS": "BPS DURATION NUMBER_OF_FRAMES NUMBER_OF_BYTES"
            }
        },
        {
            "index": 4,
            "codec_name": "ass",
            "codec_long_name": "ASS (Advanced SSA) subtitle",
            "codec_type": "subtitle",
            "codec_tag_string": "[0][0][0][0]",
            "codec_tag": "0x0000",
            "r_frame_rate": "0/0",
            "avg_frame_rate": "0/0",
            "time_base": "1/1000",
            "start_pts": 810,
            "start_time": "0.810000",
            "extradata_size": 3452,
            "disposition": {
                "default": 0,
                "dub": 0,
                "original": 0,
                "comment": 0,
                "lyrics": 0,
                "karaoke": 0,
                "forced": 0,
                "hearing_impaired": 0,
                "visual_impaired": 0,
                "clean_effects": 0,
                "attached_pic": 0,
                "timed_thumbnails": 0,
                "captions": 0,
                "descriptions": 0,
                "metadata": 0,
                "dependent": 0,
                "still_image": 0
            },
            "tags": {
                "language": "eng",
                "title": "Full Subtitlles [MapleTree]",
                "BPS": "2260",
                "DURATION": "00:23:38.550000000",
                "NUMBER_OF_FRAMES": "3365",
                "NUMBER_OF_BYTES": "400915",
                "_STATISTICS_WRITING_APP": "mkvmerge v75.0.0 ('Goliath') 64-bit",
                "_STATISTICS_WRITING_DATE_UTC": "2023-03-27 04:32:57",
                "_STATISTICS_TAGS": "BPS DURATION NUMBER_OF_FRAMES NUMBER_OF_BYTES"
            }
        },
        {
            "index": 5,
            "codec_type": "attachment",
            "codec_tag_string": "[0][0][0][0]",
            "codec_tag": "0x0000",
            "r_frame_rate": "0/0",
            "avg_frame_rate": "0/0",
            "time_base": "1/90000",
            "start_pts": 0,
            "start_time": "0.000000",
            "duration_ts": 127803960,
            "duration": "1420.044000",
            "extradata_size": 24588,
            "disposition": {
                "default": 0,
                "dub": 0,
                "original": 0,
                "comment": 0,
                "lyrics": 0,
                "karaoke": 0,
                "forced": 0,
                "hearing_impaired": 0,
                "visual_impaired": 0,
                "clean_effects": 0,
                "attached_pic": 0,
                "timed_thumbnails": 0,
                "captions": 0,
                "descriptions": 0,
                "metadata": 0,
                "dependent": 0,
                "still_image": 0
            },
            "tags": {
                "filename": "Fontin Sans Bold Italic.otf",
                "mimetype": "font/otf"
            }
        },
        {
            "index": 6,
            "codec_type": "attachment",
            "codec_tag_string": "[0][0][0][0]",
            "codec_tag": "0x0000",
            "r_frame_rate": "0/0",
            "avg_frame_rate": "0/0",
            "time_base": "1/90000",
            "start_pts": 0,
            "start_time": "0.000000",
            "duration_ts": 127803960,
            "duration": "1420.044000",
            "extradata_size": 24888,
            "disposition": {
                "default": 0,
                "dub": 0,
                "original": 0,
                "comment": 0,
                "lyrics": 0,
                "karaoke": 0,
                "forced": 0,
                "hearing_impaired": 0,
                "visual_impaired": 0,
                "clean_effects": 0,
                "attached_pic": 0,
                "timed_thumbnails": 0,
                "captions": 0,
                "descriptions": 0,
                "metadata": 0,
                "dependent": 0,
                "still_image": 0
            },
            "tags": {
                "filename": "Fontin Sans Bold.otf",
                "mimetype": "font/otf"
            }
        },
        {
            "index": 7,
            "codec_type": "attachment",
            "codec_tag_string": "[0][0][0][0]",
            "codec_tag": "0x0000",
            "r_frame_rate": "0/0",
            "avg_frame_rate": "0/0",
            "time_base": "1/90000",
            "start_pts": 0,
            "start_time": "0.000000",
            "duration_ts": 127803960,
            "duration": "1420.044000",
            "extradata_size": 32764,
            "disposition": {
                "default": 0,
                "dub": 0,
                "original": 0,
                "comment": 0,
                "lyrics": 0,
                "karaoke": 0,
                "forced": 0,
                "hearing_impaired": 0,
                "visual_impaired": 0,
                "clean_effects": 0,
                "attached_pic": 0,
                "timed_thumbnails": 0,
                "captions": 0,
                "descriptions": 0,
                "metadata": 0,
                "dependent": 0,
                "still_image": 0
            },
            "tags": {
                "filename": "Genki Desu DEMO.otf",
                "mimetype": "font/otf"
            }
        },
        {
            "index": 8,
            "codec_type": "attachment",
            "codec_tag_string": "[0][0][0][0]",
            "codec_tag": "0x0000",
            "r_frame_rate": "0/0",
            "avg_frame_rate": "0/0",
            "time_base": "1/90000",
            "start_pts": 0,
            "start_time": "0.000000",
            "duration_ts": 127803960,
            "duration": "1420.044000",
            "extradata_size": 77316,
            "disposition": {
                "default": 0,
                "dub": 0,
                "original": 0,
                "comment": 0,
                "lyrics": 0,
                "karaoke": 0,
                "forced": 0,
                "hearing_impaired": 0,
                "visual_impaired": 0,
                "clean_effects": 0,
                "attached_pic": 0,
                "timed_thumbnails": 0,
                "captions": 0,
                "descriptions": 0,
                "metadata": 0,
                "dependent": 0,
                "still_image": 0
            },
            "tags": {
                "filename": "Girls Marks.otf",
                "mimetype": "font/otf"
            }
        },
        {
            "index": 9,
            "codec_type": "attachment",
            "codec_tag_string": "[0][0][0][0]",
            "codec_tag": "0x0000",
            "r_frame_rate": "0/0",
            "avg_frame_rate": "0/0",
            "time_base": "1/90000",
            "start_pts": 0,
            "start_time": "0.000000",
            "duration_ts": 127803960,
            "duration": "1420.044000",
            "extradata_size": 1036584,
            "disposition": {
                "default": 0,
                "dub": 0,
                "original": 0,
                "comment": 0,
                "lyrics": 0,
                "karaoke": 0,
                "forced": 0,
                "hearing_impaired": 0,
                "visual_impaired": 0,
                "clean_effects": 0,
                "attached_pic": 0,
                "timed_thumbnails": 0,
                "captions": 0,
                "descriptions": 0,
                "metadata": 0,
                "dependent": 0,
                "still_image": 0
            },
            "tags": {
                "filename": "Arial.ttf",
                "mimetype": "font/ttf"
            }
        },
        {
            "index": 10,
            "codec_type": "attachment",
            "codec_tag_string": "[0][0][0][0]",
            "codec_tag": "0x0000",
            "r_frame_rate": "0/0",
            "avg_frame_rate": "0/0",
            "time_base": "1/90000",
            "start_pts": 0,
            "start_time": "0.000000",
            "duration_ts": 127803960,
            "duration": "1420.044000",
            "extradata_size": 47864,
            "disposition": {
                "default": 0,
                "dub": 0,
                "original": 0,
                "comment": 0,
                "lyrics": 0,
                "karaoke": 0,
                "forced": 0,
                "hearing_impaired": 0,
                "visual_impaired": 0,
                "clean_effects": 0,
                "attached_pic": 0,
                "timed_thumbnails": 0,
                "captions": 0,
                "descriptions": 0,
                "metadata": 0,
                "dependent": 0,
                "still_image": 0
            },
            "tags": {
                "filename": "Baar Sophia.TTF",
                "mimetype": "font/ttf"
            }
        },
        {
            "index": 11,
            "codec_type": "attachment",
            "codec_tag_string": "[0][0][0][0]",
            "codec_tag": "0x0000",
            "r_frame_rate": "0/0",
            "avg_frame_rate": "0/0",
            "time_base": "1/90000",
            "start_pts": 0,
            "start_time": "0.000000",
            "duration_ts": 127803960,
            "duration": "1420.044000",
            "extradata_size": 1648120,
            "disposition": {
                "default": 0,
                "dub": 0,
                "original": 0,
                "comment": 0,
                "lyrics": 0,
                "karaoke": 0,
                "forced": 0,
                "hearing_impaired": 0,
                "visual_impaired": 0,
                "clean_effects": 0,
                "attached_pic": 0,
                "timed_thumbnails": 0,
                "captions": 0,
                "descriptions": 0,
                "metadata": 0,
                "dependent": 0,
                "still_image": 0
            },
            "tags": {
                "filename": "Calibri.ttf",
                "mimetype": "font/ttf"
            }
        },
        {
            "index": 12,
            "codec_type": "attachment",
            "codec_tag_string": "[0][0][0][0]",
            "codec_tag": "0x0000",
            "r_frame_rate": "0/0",
            "avg_frame_rate": "0/0",
            "time_base": "1/90000",
            "start_pts": 0,
            "start_time": "0.000000",
            "duration_ts": 127803960,
            "duration": "1420.044000",
            "extradata_size": 50696,
            "disposition": {
                "default": 0,
                "dub": 0,
                "original": 0,
                "comment": 0,
                "lyrics": 0,
                "karaoke": 0,
                "forced": 0,
                "hearing_impaired": 0,
                "visual_impaired": 0,
                "clean_effects": 0,
                "attached_pic": 0,
                "timed_thumbnails": 0,
                "captions": 0,
                "descriptions": 0,
                "metadata": 0,
                "dependent": 0,
                "still_image": 0
            },
            "tags": {
                "filename": "Corporate Rounded.ttf",
                "mimetype": "font/ttf"
            }
        },
        {
            "index": 13,
            "codec_type": "attachment",
            "codec_tag_string": "[0][0][0][0]",
            "codec_tag": "0x0000",
            "r_frame_rate": "0/0",
            "avg_frame_rate": "0/0",
            "time_base": "1/90000",
            "start_pts": 0,
            "start_time": "0.000000",
            "duration_ts": 127803960,
            "duration": "1420.044000",
            "extradata_size": 46344,
            "disposition": {
                "default": 0,
                "dub": 0,
                "original": 0,
                "comment": 0,
                "lyrics": 0,
                "karaoke": 0,
                "forced": 0,
                "hearing_impaired": 0,
                "visual_impaired": 0,
                "clean_effects": 0,
                "attached_pic": 0,
                "timed_thumbnails": 0,
                "captions": 0,
                "descriptions": 0,
                "metadata": 0,
                "dependent": 0,
                "still_image": 0
            },
            "tags": {
                "filename": "Deadhead.otf",
                "mimetype": "font/otf"
            }
        }
    ]
}
